<svg height="402" version="1.1" width="932.96875" xmlns="http://www.w3.org/2000/svg" xmlns:xlink="http://www.w3.org/1999/xlink" style="overflow: hidden; position: relative; top: -0.796875px; zoom: 0.81031652989449; color: rgb(51, 51, 51);"><desc>Created with Raphaël 2.2.0</desc><defs><path stroke-linecap="round" d="M5,0 0,2.5 5,5z" id="raphael-marker-block"></path><marker id="raphael-marker-endblock55-objpo3m9" markerHeight="5" markerWidth="5" orient="auto" refX="2.5" refY="2.5"><use href="#raphael-marker-block" transform="rotate(180 2.5 2.5) scale(1,1)" stroke-width="1.0000" fill="currentColor" stroke="none"></use></marker><marker id="raphael-marker-endblock55-objins0d" markerHeight="5" markerWidth="5" orient="auto" refX="2.5" refY="2.5"><use href="#raphael-marker-block" transform="rotate(180 2.5 2.5) scale(1,1)" stroke-width="1.0000" fill="currentColor" stroke="none"></use></marker><marker id="raphael-marker-endblock55-objvoj8j" markerHeight="5" markerWidth="5" orient="auto" refX="2.5" refY="2.5"><use href="#raphael-marker-block" transform="rotate(180 2.5 2.5) scale(1,1)" stroke-width="1.0000" fill="currentColor" stroke="none"></use></marker><marker id="raphael-marker-endblock55-objwubro" markerHeight="5" markerWidth="5" orient="auto" refX="2.5" refY="2.5"><use href="#raphael-marker-block" transform="rotate(180 2.5 2.5) scale(1,1)" stroke-width="1.0000" fill="currentColor" stroke="none"></use></marker><marker id="raphael-marker-endblock55-objoop3z" markerHeight="5" markerWidth="5" orient="auto" refX="2.5" refY="2.5"><use href="#raphael-marker-block" transform="rotate(180 2.5 2.5) scale(1,1)" stroke-width="1.0000" fill="currentColor" stroke="none"></use></marker><marker id="raphael-marker-endblock55-objns9cl" markerHeight="5" markerWidth="5" orient="auto" refX="2.5" refY="2.5"><use href="#raphael-marker-block" transform="rotate(180 2.5 2.5) scale(1,1)" stroke-width="1.0000" fill="currentColor" stroke="none"></use></marker><marker id="raphael-marker-endblock55-obji7tef" markerHeight="5" markerWidth="5" orient="auto" refX="2.5" refY="2.5"><use href="#raphael-marker-block" transform="rotate(180 2.5 2.5) scale(1,1)" stroke-width="1.0000" fill="currentColor" stroke="none"></use></marker></defs><rect x="10" y="20" width="58.40625" height="38" rx="0" ry="0" fill="none" stroke="currentColor" stroke-width="2" style=""></rect><rect x="20" y="30" width="38.40625" height="18" rx="0" ry="0" fill="none" stroke="none" style=""></rect><text x="39.203125" y="39" text-anchor="middle" font-family="Andale Mono, monospace" font-size="16px" stroke="none" fill="currentColor" style="text-anchor: middle; font-family: &quot;Andale Mono&quot;, monospace; font-size: 16px;"><tspan dy="5.515625">Lock</tspan></text><rect x="10" y="344" width="58.40625" height="38" rx="0" ry="0" fill="none" stroke="currentColor" stroke-width="2" style=""></rect><rect x="20" y="354" width="38.40625" height="18" rx="0" ry="0" fill="none" stroke="none" style=""></rect><text x="39.203125" y="363" text-anchor="middle" font-family="Andale Mono, monospace" font-size="16px" stroke="none" fill="currentColor" style="text-anchor: middle; font-family: &quot;Andale Mono&quot;, monospace; font-size: 16px;"><tspan dy="5.515625">Lock</tspan></text><path fill="none" stroke="currentColor" d="M39.203125,58L39.203125,344" stroke-width="2" style=""></path><rect x="289.234375" y="20" width="77.625" height="38" rx="0" ry="0" fill="none" stroke="currentColor" stroke-width="2" style=""></rect><rect x="299.234375" y="30" width="57.625" height="18" rx="0" ry="0" fill="none" stroke="none" style=""></rect><text x="328.046875" y="39" text-anchor="middle" font-family="Andale Mono, monospace" font-size="16px" stroke="none" fill="currentColor" style="text-anchor: middle; font-family: &quot;Andale Mono&quot;, monospace; font-size: 16px;"><tspan dy="5.515625">Filter</tspan></text><rect x="289.234375" y="344" width="77.625" height="38" rx="0" ry="0" fill="none" stroke="currentColor" stroke-width="2" style=""></rect><rect x="299.234375" y="354" width="57.625" height="18" rx="0" ry="0" fill="none" stroke="none" style=""></rect><text x="328.046875" y="363" text-anchor="middle" font-family="Andale Mono, monospace" font-size="16px" stroke="none" fill="currentColor" style="text-anchor: middle; font-family: &quot;Andale Mono&quot;, monospace; font-size: 16px;"><tspan dy="5.515625">Filter</tspan></text><path fill="none" stroke="currentColor" d="M328.046875,58L328.046875,344" stroke-width="2" style=""></path><rect x="578.09375" y="20" width="58.40625" height="38" rx="0" ry="0" fill="none" stroke="currentColor" stroke-width="2" style=""></rect><rect x="588.09375" y="30" width="38.40625" height="18" rx="0" ry="0" fill="none" stroke="none" style=""></rect><text x="607.296875" y="39" text-anchor="middle" font-family="Andale Mono, monospace" font-size="16px" stroke="none" fill="currentColor" style="text-anchor: middle; font-family: &quot;Andale Mono&quot;, monospace; font-size: 16px;"><tspan dy="5.515625">List</tspan></text><rect x="578.09375" y="344" width="58.40625" height="38" rx="0" ry="0" fill="none" stroke="currentColor" stroke-width="2" style=""></rect><rect x="588.09375" y="354" width="38.40625" height="18" rx="0" ry="0" fill="none" stroke="none" style=""></rect><text x="607.296875" y="363" text-anchor="middle" font-family="Andale Mono, monospace" font-size="16px" stroke="none" fill="currentColor" style="text-anchor: middle; font-family: &quot;Andale Mono&quot;, monospace; font-size: 16px;"><tspan dy="5.515625">List</tspan></text><path fill="none" stroke="currentColor" d="M607.296875,58L607.296875,344" stroke-width="2" style=""></path><rect x="656.5" y="20" width="106.4375" height="38" rx="0" ry="0" fill="none" stroke="currentColor" stroke-width="2" style=""></rect><rect x="666.5" y="30" width="86.4375" height="18" rx="0" ry="0" fill="none" stroke="none" style=""></rect><text x="709.71875" y="39" text-anchor="middle" font-family="Andale Mono, monospace" font-size="16px" stroke="none" fill="currentColor" style="text-anchor: middle; font-family: &quot;Andale Mono&quot;, monospace; font-size: 16px;"><tspan dy="5.515625">Favorites</tspan></text><rect x="656.5" y="344" width="106.4375" height="38" rx="0" ry="0" fill="none" stroke="currentColor" stroke-width="2" style=""></rect><rect x="666.5" y="354" width="86.4375" height="18" rx="0" ry="0" fill="none" stroke="none" style=""></rect><text x="709.71875" y="363" text-anchor="middle" font-family="Andale Mono, monospace" font-size="16px" stroke="none" fill="currentColor" style="text-anchor: middle; font-family: &quot;Andale Mono&quot;, monospace; font-size: 16px;"><tspan dy="5.515625">Favorites</tspan></text><path fill="none" stroke="currentColor" d="M709.71875,58L709.71875,344" stroke-width="2" style=""></path><rect x="825.34375" y="20" width="77.625" height="38" rx="0" ry="0" fill="none" stroke="currentColor" stroke-width="2" style=""></rect><rect x="835.34375" y="30" width="57.625" height="18" rx="0" ry="0" fill="none" stroke="none" style=""></rect><text x="864.15625" y="39" text-anchor="middle" font-family="Andale Mono, monospace" font-size="16px" stroke="none" fill="currentColor" style="text-anchor: middle; font-family: &quot;Andale Mono&quot;, monospace; font-size: 16px;"><tspan dy="5.515625">Detail</tspan></text><rect x="825.34375" y="344" width="77.625" height="38" rx="0" ry="0" fill="none" stroke="currentColor" stroke-width="2" style=""></rect><rect x="835.34375" y="354" width="57.625" height="18" rx="0" ry="0" fill="none" stroke="none" style=""></rect><text x="864.15625" y="363" text-anchor="middle" font-family="Andale Mono, monospace" font-size="16px" stroke="none" fill="currentColor" style="text-anchor: middle; font-family: &quot;Andale Mono&quot;, monospace; font-size: 16px;"><tspan dy="5.515625">Detail</tspan></text><path fill="none" stroke="currentColor" d="M864.15625,58L864.15625,344" stroke-width="2" style=""></path><rect x="49.203125" y="74" width="268.84375" height="18" rx="0" ry="0" fill="none" stroke="none" style=""></rect><text x="183.625" y="83" text-anchor="middle" font-family="Andale Mono, monospace" font-size="16px" stroke="none" fill="currentColor" style="text-anchor: middle; font-family: &quot;Andale Mono&quot;, monospace; font-size: 16px;"><tspan dy="5.515625">Enter the correct master key</tspan></text><path fill="none" stroke="currentColor" d="M39.203125,96C39.203125,96,284.7430149442516,96,323.0486764858475,96" stroke-width="2" marker-end="url(#raphael-marker-endblock55-objpo3m9)" stroke-dasharray="none" style=""></path><rect x="338.046875" y="112" width="259.25" height="18" rx="0" ry="0" fill="none" stroke="none" style=""></rect><text x="467.671875" y="121" text-anchor="middle" font-family="Andale Mono, monospace" font-size="16px" stroke="none" fill="currentColor" style="text-anchor: middle; font-family: &quot;Andale Mono&quot;, monospace; font-size: 16px;"><tspan dy="5.515625">Top button with search term</tspan></text><path fill="none" stroke="currentColor" d="M328.046875,134C328.046875,134,564.7403853684664,134,602.3016113790873,134" stroke-width="2" marker-end="url(#raphael-marker-endblock55-objins0d)" stroke-dasharray="none" style=""></path><rect x="374.859375" y="150" width="288.046875" height="18" rx="0" ry="0" fill="none" stroke="none" style=""></rect><text x="518.8828125" y="159" text-anchor="middle" font-family="Andale Mono, monospace" font-size="16px" stroke="none" fill="currentColor" style="text-anchor: middle; font-family: &quot;Andale Mono&quot;, monospace; font-size: 16px;"><tspan dy="5.515625">Top button without search term</tspan></text><path fill="none" stroke="currentColor" d="M328.046875,172C328.046875,172,659.8416779814288,172,704.7182211581162,172" stroke-width="2" marker-end="url(#raphael-marker-endblock55-objvoj8j)" stroke-dasharray="none" style=""></path><rect x="668.515625" y="188" width="134.421875" height="18" rx="0" ry="0" fill="none" stroke="none" style=""></rect><text x="735.7265625" y="197" text-anchor="middle" font-family="Andale Mono, monospace" font-size="16px" stroke="none" fill="currentColor" style="text-anchor: middle; font-family: &quot;Andale Mono&quot;, monospace; font-size: 16px;"><tspan dy="5.515625">Press joystick</tspan></text><path fill="none" stroke="currentColor" d="M607.296875,210C607.296875,210,823.3409259186592,210,859.1548689298334,210" stroke-width="2" marker-end="url(#raphael-marker-endblock55-objwubro)" stroke-dasharray="none" style=""></path><rect x="719.71875" y="226" width="134.4375" height="18" rx="0" ry="0" fill="none" stroke="none" style=""></rect><text x="786.9375" y="235" text-anchor="middle" font-family="Andale Mono, monospace" font-size="16px" stroke="none" fill="currentColor" style="text-anchor: middle; font-family: &quot;Andale Mono&quot;, monospace; font-size: 16px;"><tspan dy="5.515625">Press joystick</tspan></text><path fill="none" stroke="currentColor" d="M709.71875,248C709.71875,248,832.6238636821508,248,859.1492837248807,248" stroke-width="2" marker-end="url(#raphael-marker-endblock55-objoop3z)" stroke-dasharray="none" style=""></path><rect x="470.875" y="264" width="96.015625" height="18" rx="0" ry="0" fill="none" stroke="none" style=""></rect><text x="518.8828125" y="273" text-anchor="middle" font-family="Andale Mono, monospace" font-size="16px" stroke="none" fill="currentColor" style="text-anchor: middle; font-family: &quot;Andale Mono&quot;, monospace; font-size: 16px;"><tspan dy="5.515625">Top button</tspan></text><path fill="none" stroke="currentColor" d="M709.71875,286C709.71875,286,377.9239470185712,286,333.0474038418838,286" stroke-width="2" marker-end="url(#raphael-marker-endblock55-objns9cl)" stroke-dasharray="none" style=""></path><rect x="548.09375" y="302" width="96.015625" height="18" rx="0" ry="0" fill="none" stroke="none" style=""></rect><text x="596.1015625" y="311" text-anchor="middle" font-family="Andale Mono, monospace" font-size="16px" stroke="none" fill="currentColor" style="text-anchor: middle; font-family: &quot;Andale Mono&quot;, monospace; font-size: 16px;"><tspan dy="5.515625">Top button</tspan></text><path fill="none" stroke="currentColor" d="M864.15625,324C864.15625,324,387.3050035322085,324,333.05386074558965,324" stroke-width="2" marker-end="url(#raphael-marker-endblock55-obji7tef)" stroke-dasharray="none" style=""></path></svg>